<?xml version="1.0" standalone="no"?>
<!DOCTYPE svg PUBLIC "-//W3C//DTD SVG 20010904//EN"
 "http://www.w3.org/TR/2001/REC-SVG-20010904/DTD/svg10.dtd">
<svg version="1.0" xmlns="http://www.w3.org/2000/svg"
 width="500.000000pt" height="500.000000pt" viewBox="0 0 500.000000 500.000000"
 preserveAspectRatio="xMidYMid meet">

<g transform="translate(0.000000,500.000000) scale(0.100000,-0.100000)"
fill="#000000" stroke="none">
<path d="M2335 4804 c-348 -35 -583 -100 -864 -240 -253 -126 -444 -266 -633
-463 -182 -190 -302 -364 -419 -606 -105 -219 -167 -421 -206 -675 -24 -161
-24 -481 1 -645 143 -930 796 -1667 1690 -1905 145 -39 195 -48 346 -65 613
-71 1252 123 1731 523 435 365 716 870 805 1447 25 164 25 482 0 650 -90 602
-403 1138 -877 1505 -300 232 -678 393 -1054 451 -124 19 -428 32 -520 23z
m-995 -1814 l0 -130 -25 0 -25 0 0 130 0 130 25 0 25 0 0 -130z m178 -87 l2
-213 -115 0 -115 0 0 50 0 50 60 0 60 0 0 166 0 165 53 -3 52 -3 3 -212z m172
-83 l0 -300 -200 0 -200 0 0 50 0 50 145 0 145 0 0 250 0 250 55 0 55 0 0
-300z m160 -90 l0 -390 -280 0 -280 0 0 55 0 55 230 0 230 0 0 335 0 335 50 0
50 0 0 -390z m459 116 c15 -16 24 -41 28 -80 l6 -56 -36 0 c-36 0 -36 0 -39
48 -2 34 -7 47 -18 47 -13 0 -15 -25 -18 -157 -2 -153 -2 -158 18 -158 17 0
20 6 20 49 0 35 -4 51 -16 55 -9 3 -14 15 -12 28 3 20 10 23 51 26 l47 3 0
-110 0 -111 -25 0 c-14 0 -25 5 -25 10 0 6 -11 3 -24 -6 -21 -13 -29 -14 -53
-2 -48 23 -54 47 -51 225 3 155 4 162 27 187 33 35 88 36 120 2z m141 -196 l0
-220 -30 0 -30 0 0 220 0 220 30 0 30 0 0 -220z m121 143 l0 -78 28 75 c26 70
31 75 60 78 17 2 31 1 31 -3 0 -3 -11 -33 -25 -67 -14 -34 -25 -71 -25 -82 0
-12 14 -79 30 -150 17 -72 30 -131 30 -133 0 -2 -15 -3 -33 -3 -32 0 -33 2
-45 58 -7 31 -17 75 -23 97 -10 34 -13 37 -20 20 -4 -11 -8 -55 -8 -97 l-1
-78 -35 0 -35 0 0 213 c0 118 3 217 7 220 3 4 19 7 35 7 l28 0 1 -77z m304 52
c25 -24 25 -27 25 -192 0 -138 -3 -173 -16 -191 -22 -32 -57 -43 -94 -31 -51
18 -60 50 -60 219 0 193 10 217 88 219 22 1 41 -7 57 -24z m200 19 c20 -8 45
-56 45 -89 0 -21 -5 -25 -28 -25 -22 0 -30 7 -39 31 -7 18 -18 29 -25 27 -29
-10 -19 -51 33 -136 65 -106 76 -171 37 -217 -20 -22 -32 -28 -68 -28 -57 0
-93 37 -88 92 3 31 7 36 29 39 23 3 27 -1 33 -32 5 -26 12 -36 26 -36 46 0 33
53 -40 169 -50 81 -56 146 -15 186 24 25 65 32 100 19z m155 -84 c0 -83 2 -90
20 -90 17 0 19 8 22 88 l3 87 33 3 32 3 0 -220 0 -221 -35 0 -35 0 0 95 c0 88
-1 95 -20 95 -19 0 -20 -7 -20 -95 l0 -95 -35 0 -35 0 0 220 0 220 35 0 35 0
0 -90z m-1890 -765 l0 -265 -25 0 -25 0 0 265 0 265 25 0 25 0 0 -265z m180 0
l0 -265 -55 0 -55 0 0 265 0 265 55 0 55 0 0 -265z m170 0 l0 -265 -55 0 -55
0 0 265 0 265 55 0 55 0 0 -265z m160 0 l0 -265 -50 0 -50 0 0 265 0 265 50 0
50 0 0 -265z m349 61 c7 -9 11 -38 9 -73 -3 -54 -5 -58 -28 -58 -23 0 -25 4
-28 58 -3 54 8 87 28 87 4 0 13 -6 19 -14z m79 -23 l10 -38 1 38 c1 20 6 37
11 37 6 0 10 -32 10 -75 0 -77 -11 -96 -28 -47 l-10 27 -1 -27 c-1 -16 -5 -28
-11 -28 -6 0 -10 32 -10 75 0 81 12 97 28 38z m100 -31 c2 -34 7 -62 12 -62 6
0 10 -4 10 -10 0 -5 -11 -10 -25 -10 -24 0 -25 2 -25 76 0 56 3 75 13 72 7 -3
13 -28 15 -66z m82 -7 c0 -43 -4 -75 -10 -75 -6 0 -10 32 -10 75 0 43 4 75 10
75 6 0 10 -32 10 -75z m69 43 l9 -33 1 33 c1 17 6 32 11 32 6 0 10 -32 10 -75
0 -80 -10 -96 -28 -42 l-10 32 -1 -32 c-1 -18 -5 -33 -11 -33 -6 0 -10 32 -10
75 0 79 13 98 29 43z m121 18 c0 -8 -6 -16 -12 -19 -10 -3 -10 -9 -1 -25 8
-13 9 -23 3 -27 -13 -8 -13 -45 0 -45 6 0 10 -4 10 -10 0 -5 -11 -10 -25 -10
-24 0 -25 2 -25 75 0 73 1 75 25 75 15 0 25 -6 25 -14z"/>
<path d="M2804 2797 c-2 -7 -3 -78 -2 -157 3 -121 5 -145 18 -145 12 0 15 23
18 135 1 74 0 145 -3 158 -6 24 -23 29 -31 9z"/>
<path d="M2170 2015 c0 -25 5 -45 10 -45 6 0 10 20 10 45 0 25 -4 45 -10 45
-5 0 -10 -20 -10 -45z"/>
</g>
</svg>
